<?xml version="1.0" encoding="utf-8"?>
<!-- Generator: Adobe Illustrator 19.2.1, SVG Export Plug-In . SVG Version: 6.00 Build 0)  -->
<svg version="1.1" id="Layer_1" xmlns="http://www.w3.org/2000/svg" xmlns:xlink="http://www.w3.org/1999/xlink" x="0px" y="0px"
	 viewBox="0 0 204.3 27.3" style="enable-background:new 0 0 204.3 27.3;" xml:space="preserve">
<style type="text/css">
	.st0{fill:#0095C8;}
</style>
<g>
	<g>
		<path class="st0" d="M2.2,7.6c0-1,0.5-1.7,1.6-1.7c1,0,1.6,0.7,1.6,1.7l0,5l5.6-6c0.4-0.4,0.8-0.7,1.3-0.7c0.8,0,1.5,0.6,1.5,1.5
			c0,0.5-0.3,0.9-0.6,1.2l-3.4,3.6l4.1,6.3c0.3,0.5,0.7,1,0.7,1.3c0,1.2-0.9,1.6-1.7,1.6c-0.7,0-1.1-0.2-1.5-0.9l-3.9-6.1l-2,2
			l0,3.3c0,1-0.5,1.7-1.6,1.7c-1,0-1.6-0.7-1.6-1.7V7.6z"/>
		<path class="st0" d="M17.9,5.8c0.9,0,1.6,0.7,1.6,1.6S18.8,9,17.9,9s-1.6-0.7-1.6-1.6S17,5.8,17.9,5.8z M16.4,11.5
			c0-0.8,0.3-1.5,1.5-1.5s1.5,0.7,1.5,1.5v8.4c0,0.8-0.3,1.5-1.5,1.5s-1.5-0.7-1.5-1.5V11.5z"/>
		<path class="st0" d="M32,20c0,0.9-0.4,1.4-1.4,1.4c-0.9,0-1.4-0.5-1.4-1.4v-0.5h0c-0.5,1.3-1.7,1.9-3.2,1.9
			c-2.5,0-4.8-1.9-4.8-5.8c0-2.9,1.5-5.6,4.7-5.6c1.4,0,2.4,0.6,3,1.5h0V7.4c0-1,0.6-1.5,1.5-1.5c0.9,0,1.5,0.5,1.5,1.5V20z
			 M26.7,19.1c1.8,0,2.4-1.6,2.4-3.3c0-1.6-0.6-3.4-2.4-3.4c-1.9,0-2.4,2-2.4,3.4C24.3,17.5,25.1,19,26.7,19.1z"/>
		<path class="st0" d="M38.6,10c2.3,0,4.6,0.9,4.6,2.3c0,0.7-0.5,1.3-1.3,1.3c-1.2,0-1.2-1.4-3.1-1.4c-1.1,0-1.7,0.3-1.7,0.9
			c0,0.7,0.7,0.9,1.6,1.1l1.3,0.3c1.7,0.4,3.8,1.1,3.8,3.2c0,2.5-2.4,3.6-4.7,3.6c-2.7,0-5-1.2-5-2.7c0-0.7,0.4-1.3,1.2-1.3
			c1.3,0,1.4,1.9,3.7,1.9c1.1,0,1.8-0.5,1.8-1.1c0-0.8-0.7-0.9-1.7-1.2l-1.8-0.4c-1.8-0.4-3.1-1.2-3.1-3.2C34,10.9,36.5,10,38.6,10z
			"/>
		<path class="st0" d="M51.9,7.6c0-1,0.5-1.7,1.6-1.7c1,0,1.6,0.7,1.6,1.7V12h6.2V7.6c0-1,0.5-1.7,1.6-1.7s1.6,0.7,1.6,1.7v12.1
			c0,1-0.5,1.7-1.6,1.7s-1.6-0.7-1.6-1.7v-5H55v5c0,1-0.5,1.7-1.6,1.7c-1,0-1.6-0.7-1.6-1.7V7.6z"/>
		<path class="st0" d="M69.4,16.3c0,1.6,1,2.8,2.8,2.8c2.3,0,2.3-1.5,3.5-1.5c0.7,0,1.2,0.6,1.2,1.2c0,1.8-2.9,2.7-4.8,2.7
			c-4.2,0-5.8-2.9-5.8-5.5c0-3.5,2.1-5.9,5.7-5.9c3.5,0,5.5,2.5,5.5,5c0,1-0.3,1.3-1.3,1.3H69.4z M74.7,14.5
			c-0.2-1.4-1.2-2.4-2.6-2.4c-1.5,0-2.4,0.9-2.8,2.4H74.7z"/>
		<path class="st0" d="M79.6,7.4c0-1,0.6-1.5,1.5-1.5c0.9,0,1.5,0.5,1.5,1.5v12.5c0,1-0.6,1.5-1.5,1.5c-0.9,0-1.5-0.5-1.5-1.5V7.4z"
			/>
		<path class="st0" d="M85.2,11.4c0-0.9,0.4-1.4,1.4-1.4c0.9,0,1.4,0.5,1.4,1.4v0.5h0c0.5-1.3,1.7-1.9,3.2-1.9
			c2.5,0,4.8,1.9,4.8,5.8c0,2.9-1.5,5.6-4.7,5.6c-1.4,0-2.4-0.6-3-1.5h0v4.1c0,1-0.6,1.5-1.5,1.5c-0.9,0-1.5-0.5-1.5-1.5V11.4z
			 M90.5,12.4c-1.8,0-2.4,1.6-2.4,3.3c0,1.6,0.6,3.4,2.4,3.4c1.9,0,2.4-2,2.4-3.4C92.9,13.9,92.1,12.4,90.5,12.4z"/>
		<path class="st0" d="M103.9,8.2c0-1.5,0.7-2,1.9-2h5c2.9,0,4.9,1.4,4.9,4.7c0,2.7-1.7,4.7-5,4.7H107v4.1c0,1-0.5,1.7-1.6,1.7
			c-1,0-1.6-0.7-1.6-1.7V8.2z M107,13h3.1c1.4,0,2.4-0.8,2.4-2.1c0-1.5-1.1-2.1-2.7-2.1H107V13z"/>
		<path class="st0" d="M117.4,7.4c0-1,0.6-1.5,1.5-1.5s1.5,0.5,1.5,1.5v4.2h0c0.6-0.8,1.7-1.6,3.4-1.6c1.8,0,3.8,0.9,3.8,4v5.9
			c0,0.8-0.3,1.5-1.5,1.5c-1.2,0-1.5-0.7-1.5-1.5v-5.3c0-1.2-0.6-2.1-1.9-2.1c-1.1,0-2.3,0.9-2.3,2.4v5c0,0.8-0.3,1.5-1.5,1.5
			c-1.2,0-1.5-0.7-1.5-1.5V7.4z"/>
		<path class="st0" d="M135,10c3.7,0,5.6,2.5,5.6,5.7c0,3-1.5,5.7-5.6,5.7c-4.1,0-5.6-2.7-5.6-5.7C129.4,12.5,131.4,10,135,10z
			 M135,19.2c1.8,0,2.6-1.6,2.6-3.5c0-2-0.8-3.5-2.6-3.5c-1.8,0-2.6,1.5-2.6,3.5C132.4,17.6,133.2,19.2,135,19.2z"/>
		<path class="st0" d="M142.4,11.5c0-0.9,0.4-1.5,1.4-1.5c1,0,1.4,0.6,1.4,1.5v0.4h0c0.9-1.1,2-1.9,3.7-1.9c1.8,0,3.8,0.9,3.8,4v5.9
			c0,0.8-0.3,1.5-1.5,1.5c-1.2,0-1.5-0.7-1.5-1.5v-5.3c0-1.2-0.6-2.1-1.9-2.1c-1.1,0-2.3,0.9-2.3,2.4v5c0,0.8-0.3,1.5-1.5,1.5
			c-1.2,0-1.5-0.7-1.5-1.5V11.5z"/>
		<path class="st0" d="M157.4,16.3c0,1.6,1,2.8,2.8,2.8c2.3,0,2.3-1.5,3.5-1.5c0.7,0,1.2,0.6,1.2,1.2c0,1.8-2.9,2.7-4.8,2.7
			c-4.2,0-5.8-2.9-5.8-5.5c0-3.5,2.1-5.9,5.7-5.9c3.5,0,5.5,2.5,5.5,5c0,1-0.3,1.3-1.3,1.3H157.4z M162.8,14.5
			c-0.2-1.4-1.2-2.4-2.6-2.4c-1.5,0-2.4,0.9-2.8,2.4H162.8z"/>
	</g>
	<path class="st0" d="M202.2,5.6v16.2c0,2.1-1.7,3.8-3.8,3.8h-17.2c-2.1,0-3.8-1.7-3.8-3.8v-4.4l-4.7-3.3c-0.2-0.2-0.2-0.5,0-0.7
		l4.7-3.3V5.6c0-2.1,1.7-3.8,3.8-3.8h17.2C200.4,1.7,202.2,3.4,202.2,5.6z M189.7,20.4c2.6,0,5-1.1,6.8-2.9l-1.5-1.8
		c-1.3,1.5-3.2,2.4-5.2,2.4c-2,0-3.9-0.9-5.2-2.4l-1.5,1.8C184.6,19.3,187,20.4,189.7,20.4z M193.7,8.1c-1.1,0-1.9,0.9-1.9,1.9
		s0.9,1.9,1.9,1.9s1.9-0.9,1.9-1.9S194.8,8.1,193.7,8.1z M185.6,8.1c-1.1,0-1.9,0.9-1.9,1.9s0.9,1.9,1.9,1.9s1.9-0.9,1.9-1.9
		S186.6,8.1,185.6,8.1z"/>
</g>
</svg>
